<svg width="48" height="48" viewBox="0 0 48 48" fill="none" xmlns="http://www.w3.org/2000/svg">
<path fill-rule="evenodd" clip-rule="evenodd" d="M23.9998 4.7998C13.4014 4.7998 4.7998 13.4014 4.7998 23.9998C4.7998 34.5982 13.4014 43.1998 23.9998 43.1998C34.5982 43.1998 43.1998 34.5982 43.1998 23.9998C43.1998 13.4014 34.5982 4.7998 23.9998 4.7998ZM16.4095 15.4835C16.7319 15.161 17.2548 15.161 17.5772 15.4835L24 21.9062L30.4225 15.4838C30.745 15.1613 31.2678 15.1613 31.5903 15.4838L32.758 16.6515C33.0805 16.974 33.0805 17.4968 32.758 17.8192L26.3355 24.2417L32.7579 30.6641C33.0804 30.9865 33.0804 31.5094 32.7579 31.8318L31.5902 32.9996C31.2677 33.322 30.7449 33.322 30.4224 32.9996L24 26.5772L17.5773 32.9998C17.2549 33.3223 16.7321 33.3223 16.4096 32.9998L15.2419 31.8321C14.9194 31.5096 14.9194 30.9868 15.2419 30.6643L21.6645 24.2417L15.2417 17.819C14.9193 17.4965 14.9193 16.9737 15.2417 16.6512L16.4095 15.4835Z" fill="#E84E58"/>
</svg>
